<svg xmlns="http://www.w3.org/2000/svg" viewBox="0 0 64 64">
  <defs>
    <linearGradient id="g" x1="0" y1="0" x2="1" y2="1">
      <stop offset="0" stop-color="#3b82f6"/>
      <stop offset="1" stop-color="#8b5cf6"/>
    </linearGradient>
  </defs>
  <rect width="64" height="64" rx="14" fill="url(#g)"/>
  <g fill="none" stroke="#fff" stroke-width="4">
    <rect x="12" y="12" width="15" height="15" rx="2.5"/>
    <rect x="37" y="12" width="15" height="15" rx="2.5"/>
    <rect x="12" y="37" width="15" height="15" rx="2.5"/>
    <path d="M37 37h6v6h-6z"/>
    <path d="M47 37h5M37 47h5M47 47h5M42 42h10"/>
  </g>
  <g fill="#fff">
    <rect x="14" y="14" width="5" height="5"/>
    <rect x="20" y="20" width="5" height="5"/>
    <rect x="39" y="14" width="5" height="5"/>
    <rect x="45" y="20" width="5" height="5"/>
    <rect x="14" y="39" width="5" height="5"/>
    <rect x="20" y="45" width="5" height="5"/>
  </g>
</svg>
